<svg width="303" height="53" viewBox="0 0 303 53" fill="none" xmlns="http://www.w3.org/2000/svg">
<path d="M17.3478 10.8002C20.2318 10.8002 22.7662 11.3829 24.9511 12.5481C27.1651 13.6843 28.8692 15.3593 30.0636 17.5733C31.2872 19.7582 31.8989 22.3945 31.8989 25.4825V42H23.2469V35.2269H11.3176V42H2.79662V25.4825C2.79662 22.3945 3.39381 19.7582 4.5882 17.5733C5.81172 15.3593 7.51591 13.6843 9.70077 12.5481C11.9148 11.3829 14.4638 10.8002 17.3478 10.8002ZM23.2469 28.5413V24.7396C23.2469 22.4965 22.7079 20.8069 21.6301 19.6708C20.5522 18.5346 19.1102 17.9666 17.3041 17.9666C15.4688 17.9666 14.0122 18.5346 12.9344 19.6708C11.8565 20.8069 11.3176 22.4965 11.3176 24.7396V28.5413H23.2469ZM52.7838 17.9229C55.726 17.9229 58.0857 18.7968 59.8627 20.5447C61.6688 22.2926 62.5719 24.929 62.5719 28.4539V42H54.2695V29.8085C54.2695 26.5749 52.9731 24.9581 50.3804 24.9581C48.953 24.9581 47.8023 25.4242 46.9283 26.3564C46.0835 27.2886 45.6611 28.6869 45.6611 30.5513V42H37.3587V18.3161H45.2678V20.8943C46.2001 19.9329 47.307 19.2047 48.5888 18.7094C49.8706 18.1851 51.2689 17.9229 52.7838 17.9229ZM78.9273 42.6118C76.4511 42.6118 74.0478 42.3059 71.7172 41.6941C69.3867 41.0824 67.4932 40.2667 66.0366 39.2471L68.8769 32.8673C70.2461 33.7704 71.8338 34.4987 73.6399 35.0522C75.4461 35.6057 77.2231 35.8824 78.971 35.8824C82.292 35.8824 83.9524 35.0522 83.9524 33.3917C83.9524 32.5177 83.4718 31.8768 82.5104 31.469C81.5782 31.032 80.0634 30.5805 77.9659 30.1144C75.6646 29.6191 73.7419 29.0948 72.1979 28.5413C70.654 27.9587 69.3285 27.041 68.2215 25.7884C67.1145 24.5357 66.561 22.8461 66.561 20.7195C66.561 18.8551 67.0708 17.18 68.0904 15.6943C69.11 14.1795 70.6248 12.9851 72.6349 12.1112C74.6741 11.2372 77.1648 10.8002 80.1071 10.8002C82.1172 10.8002 84.0981 11.0333 86.0499 11.4994C88.0017 11.9364 89.7205 12.5918 91.2062 13.4658L88.5406 19.8892C85.6275 18.3161 82.8018 17.5296 80.0634 17.5296C78.3446 17.5296 77.092 17.7918 76.3054 18.3161C75.5189 18.8114 75.1256 19.4668 75.1256 20.2825C75.1256 21.0982 75.5917 21.71 76.5239 22.1178C77.4561 22.5256 78.9564 22.948 81.0247 23.385C83.3553 23.8803 85.2779 24.4192 86.7928 25.0018C88.3367 25.5553 89.6622 26.4584 90.7692 27.711C91.9053 28.9346 92.4734 30.6096 92.4734 32.7362C92.4734 34.5715 91.9636 36.232 90.944 37.7177C89.9244 39.2034 88.395 40.3978 86.3558 41.3008C84.3166 42.1748 81.8404 42.6118 78.9273 42.6118ZM110.977 17.9229C113.133 17.9229 115.085 18.4327 116.833 19.4523C118.61 20.4427 120.008 21.8702 121.028 23.7346C122.076 25.5699 122.601 27.711 122.601 30.1581C122.601 32.6051 122.076 34.7608 121.028 36.6253C120.008 38.4605 118.61 39.888 116.833 40.9076C115.085 41.898 113.133 42.3933 110.977 42.3933C108.21 42.3933 106.011 41.563 104.379 39.9025V50.4772H96.0767V18.3161H103.986V20.6758C105.53 18.8405 107.86 17.9229 110.977 17.9229ZM109.23 35.795C110.686 35.795 111.88 35.2998 112.813 34.3093C113.745 33.2897 114.211 31.906 114.211 30.1581C114.211 28.4102 113.745 27.041 112.813 26.0505C111.88 25.0309 110.686 24.5211 109.23 24.5211C107.773 24.5211 106.579 25.0309 105.646 26.0505C104.714 27.041 104.248 28.4102 104.248 30.1581C104.248 31.906 104.714 33.2897 105.646 34.3093C106.579 35.2998 107.773 35.795 109.23 35.795ZM151.498 18.3161V42H143.589V39.6404C142.045 41.4756 139.715 42.3933 136.598 42.3933C134.442 42.3933 132.475 41.898 130.698 40.9076C128.951 39.888 127.552 38.446 126.504 36.5816C125.484 34.7171 124.974 32.5614 124.974 30.1144C124.974 27.6673 125.484 25.5262 126.504 23.6909C127.552 21.8265 128.951 20.399 130.698 19.4086C132.475 18.4181 134.442 17.9229 136.598 17.9229C139.394 17.9229 141.594 18.7386 143.196 20.3699V18.3161H151.498ZM138.345 35.795C139.802 35.795 140.996 35.2998 141.929 34.3093C142.861 33.2897 143.327 31.8914 143.327 30.1144C143.327 28.3665 142.861 26.9973 141.929 26.0068C140.996 25.0164 139.802 24.5211 138.345 24.5211C136.889 24.5211 135.695 25.0164 134.762 26.0068C133.83 26.9973 133.364 28.3665 133.364 30.1144C133.364 31.8914 133.83 33.2897 134.762 34.3093C135.695 35.2998 136.889 35.795 138.345 35.795ZM168.947 42.3933C166.325 42.3933 163.98 41.8689 161.912 40.8202C159.844 39.7714 158.227 38.3149 157.062 36.4505C155.925 34.5861 155.357 32.474 155.357 30.1144C155.357 27.7547 155.925 25.6573 157.062 23.822C158.227 21.9576 159.844 20.5156 161.912 19.496C163.98 18.4472 166.325 17.9229 168.947 17.9229C171.627 17.9229 173.943 18.5055 175.895 19.6708C177.847 20.8069 179.231 22.3945 180.046 24.4337L173.623 27.711C172.545 25.5844 170.972 24.5211 168.903 24.5211C167.418 24.5211 166.18 25.0164 165.189 26.0068C164.228 26.9973 163.747 28.3665 163.747 30.1144C163.747 31.8914 164.228 33.2897 165.189 34.3093C166.18 35.2998 167.418 35.795 168.903 35.795C170.972 35.795 172.545 34.7317 173.623 32.6051L180.046 35.8824C179.231 37.9216 177.847 39.5238 175.895 40.6891C173.943 41.8252 171.627 42.3933 168.947 42.3933ZM195.588 36.0572C196.725 36.0572 197.7 35.897 198.516 35.5765C199.361 35.2561 200.206 34.7317 201.051 34.0034L205.377 38.5479C203.133 41.1115 199.783 42.3933 195.326 42.3933C192.559 42.3933 190.126 41.8689 188.029 40.8202C185.931 39.7714 184.3 38.3149 183.135 36.4505C181.999 34.5861 181.431 32.474 181.431 30.1144C181.431 27.7839 181.999 25.701 183.135 23.8657C184.271 22.0013 185.829 20.5447 187.81 19.496C189.82 18.4472 192.063 17.9229 194.54 17.9229C196.841 17.9229 198.939 18.4035 200.832 19.3649C202.755 20.2971 204.284 21.6808 205.42 23.5161C206.556 25.3223 207.124 27.478 207.124 29.9833L190.214 33.2169C191.117 35.1104 192.908 36.0572 195.588 36.0572ZM194.583 23.822C193.156 23.822 191.991 24.2735 191.088 25.1766C190.185 26.0505 189.675 27.3178 189.558 28.9783L199.172 27.0993C198.88 26.1088 198.327 25.3223 197.511 24.7396C196.695 24.1279 195.719 23.822 194.583 23.822Z" fill="#8BBAA4"/>
<path d="M212.536 18.1357L212.536 46.5274C216.439 46.4664 224.173 43.8928 223.88 34.0862C225.587 34.0933 229.405 33.9203 231.015 33.1714C249.128 25.6701 238.882 7.37431 230.466 6.64247L214.175 6.4931C212.528 6.4931 212.475 6.24915 212.536 7.40789C212.536 17.4706 220.465 17.5179 223.514 17.396V13.229L232.479 19.9984L223.514 26.5849L223.446 22.8581C221.625 22.8581 214.175 23.4181 212.536 18.1357Z" fill="#8BBAA4"/>
<path d="M268.778 18.3161V42H260.869V39.6404C259.325 41.4756 256.995 42.3933 253.877 42.3933C251.722 42.3933 249.755 41.898 247.978 40.9076C246.23 39.888 244.832 38.446 243.783 36.5816C242.764 34.7171 242.254 32.5614 242.254 30.1144C242.254 27.6673 242.764 25.5262 243.783 23.6909C244.832 21.8265 246.23 20.399 247.978 19.4086C249.755 18.4181 251.722 17.9229 253.877 17.9229C256.674 17.9229 258.874 18.7386 260.476 20.3699V18.3161H268.778ZM255.625 35.795C257.082 35.795 258.276 35.2998 259.209 34.3093C260.141 33.2897 260.607 31.8914 260.607 30.1144C260.607 28.3665 260.141 26.9973 259.209 26.0068C258.276 25.0164 257.082 24.5211 255.625 24.5211C254.169 24.5211 252.974 25.0164 252.042 26.0068C251.11 26.9973 250.644 28.3665 250.644 30.1144C250.644 31.8914 251.11 33.2897 252.042 34.3093C252.974 35.2998 254.169 35.795 255.625 35.795ZM299.03 18.3161V37.674C299.03 42.0728 297.85 45.3647 295.491 47.5495C293.16 49.7635 289.796 50.8705 285.397 50.8705C283.095 50.8705 280.94 50.6083 278.93 50.084C276.949 49.5596 275.259 48.7876 273.861 47.768L276.876 41.9563C277.808 42.7429 278.973 43.3546 280.372 43.7916C281.799 44.2577 283.212 44.4907 284.61 44.4907C286.708 44.4907 288.252 44.0101 289.242 43.0487C290.233 42.0874 290.728 40.66 290.728 38.7664V38.242C288.951 39.9317 286.737 40.7765 284.086 40.7765C281.027 40.7765 278.58 39.8734 276.745 38.0673C274.939 36.2611 274.036 33.5519 274.036 29.9396V18.3161H282.338V28.585C282.338 30.3911 282.673 31.702 283.343 32.5177C284.013 33.3334 284.989 33.7412 286.271 33.7412C287.582 33.7412 288.645 33.2751 289.461 32.3429C290.305 31.4107 290.728 30.0124 290.728 28.148V18.3161H299.03Z" fill="#8BBAA4"/>
</svg>
